<?xml version="1.0" standalone="no"?><!DOCTYPE svg PUBLIC "-//W3C//DTD SVG 1.1//EN" "http://www.w3.org/Graphics/SVG/1.1/DTD/svg11.dtd"><svg t="1702471066664" fill="currentColor" class="icon" viewBox="0 0 1024 1024" version="1.1" xmlns="http://www.w3.org/2000/svg" p-id="4413" xmlns:xlink="http://www.w3.org/1999/xlink" width="200" height="200"><path d="M940.16 144.64a286.208 286.208 0 0 0-405.12 0l-5.76 5.76-105.6-54.4c-0.64 0-0.64-0.64-1.28-1.28-2.56-1.28-5.12-1.92-7.68-3.2l-10.24-5.12v0.64A286.08 286.08 0 0 0 0 347.52c0 76.8 30.08 148.48 83.84 202.88l402.56 402.56a35.328 35.328 0 0 0 49.92 0l402.56-402.56C993.92 496 1024 423.68 1024 347.52c0-76.8-30.08-148.48-83.84-202.88zM744.32 563.2l-140.16 138.24c-7.04 7.04-16 10.24-24.96 10.24s-18.56-3.84-25.6-10.88a35.52 35.52 0 0 1 0.64-50.56L694.4 512c14.08-14.08 36.48-13.44 50.56 0.64 13.44 14.08 13.44 36.48-0.64 50.56z" p-id="4414"></path></svg>